<?xml version="1.0" encoding="UTF-8" standalone="no"?><!DOCTYPE svg PUBLIC "-//W3C//DTD SVG 1.1//EN" "http://www.w3.org/Graphics/SVG/1.1/DTD/svg11.dtd"><svg width="100%" height="100%" viewBox="0 0 7011 2134" version="1.1" xmlns="http://www.w3.org/2000/svg" xmlns:xlink="http://www.w3.org/1999/xlink" xml:space="preserve" xmlns:serif="http://www.serif.com/" style="fill-rule:evenodd;clip-rule:evenodd;stroke-linejoin:round;stroke-miterlimit:2;"><rect id="アートボード1" x="0" y="0" width="7010.42" height="2133.33" style="fill:none;"/><g id="Phrude"><g id="P"></g><g id="レイヤー1"><path id="P1" serif:id="P" d="M331.328,778.718c0,-263.508 262.788,-503.477 526.271,-499.811c265.076,3.687 523.023,247.681 523.415,521.952c0.394,275.982 -214.231,564.605 -526.491,564.349c-320.812,-0.264 -521.76,-309.396 -521.76,-309.396c-28.448,-42.852 -81.603,-62.018 -130.851,-47.181c-49.249,14.837 -82.971,60.176 -83.013,111.611c-0.159,193.505 -0.721,876.394 -0.721,876.394c-0.053,64.433 52.138,116.709 116.571,116.762c64.433,0.053 116.71,-52.137 116.763,-116.571l0.484,-589.303c123.227,97.796 294.938,190.846 502.335,191.017c445.862,0.366 760.579,-403.953 760.016,-798.015c-0.565,-395.764 -371.006,-749.609 -753.503,-754.93c-384.092,-5.343 -762.849,348.993 -762.849,733.122c0,64.434 52.234,116.667 116.667,116.667c64.433,-0 116.666,-52.233 116.666,-116.667Z" style="fill:#0f94fd;"/><circle cx="1170.76" cy="1073.22" r="56.25" style="fill:#0f94fd;"/><path d="M916.958,450.085c58.627,25.653 176.964,75.705 239.704,205.984c63.42,131.691 46.011,222.698 37.19,268.217c-4.816,24.851 11.425,48.901 36.276,53.717c24.85,4.816 48.9,-11.425 53.716,-36.276c10.701,-55.217 32.338,-165.684 -44.594,-325.431c-75.365,-156.494 -215.122,-219.375 -285.545,-250.19c-23.19,-10.148 -50.215,0.426 -60.363,23.616c-10.147,23.19 0.426,50.215 23.616,60.363Z" style="fill:#0f94fd;"/></g><text id="hrude" x="1647.92px" y="2093.75px" style="font-family:'ArialRoundedMTBold', 'Arial Rounded MT Bold', sans-serif;font-size:1875px;fill:#0f94fd;">hr<tspan x="3554.96px 4687.47px " y="2093.75px 2093.75px ">ud</tspan>e</text></g></svg>